<?xml version="1.0" encoding="UTF-8" standalone="no"?>
<!-- Uploaded to: SVG Repo, www.svgrepo.com, Generator: SVG Repo Mixer Tools -->

<svg
   fill="#000000"
   height="863.86871"
   width="867.81934"
   version="1.1"
   id="Layer_1"
   viewBox="0 0 532.26289 529.83984"
   xml:space="preserve"
   sodipodi:docname="no-photo-svgrepo-com.svg"
   xmlns:inkscape="http://www.inkscape.org/namespaces/inkscape"
   xmlns:sodipodi="http://sodipodi.sourceforge.net/DTD/sodipodi-0.dtd"
   xmlns="http://www.w3.org/2000/svg"
   xmlns:svg="http://www.w3.org/2000/svg"><defs
   id="defs4" /><sodipodi:namedview
   id="namedview4"
   pagecolor="#ffffff"
   bordercolor="#000000"
   borderopacity="0.25"
   inkscape:showpageshadow="2"
   inkscape:pageopacity="0.0"
   inkscape:pagecheckerboard="0"
   inkscape:deskcolor="#d1d1d1"
   showgrid="false" />&#10;&#10;<g
   id="g4"
   style="fill:#999999"
   transform="matrix(0.86337421,0,0,0.86337421,54.317245,53.10573)">&#10;	<g
   id="g3"
   style="fill:#999999">&#10;		<g
   id="g2"
   style="fill:#999999">&#10;			<path
   d="m 309.333,128 h -12.48 c -4.416,-12.416 -16.277,-21.333 -30.187,-21.333 H 224 c -14.528,0 -26.816,9.728 -30.699,22.997 -1.813,1.152 -3.285,2.859 -4.139,4.928 -1.664,3.989 -0.747,8.576 2.304,11.627 l 29.035,29.035 c 7.808,-2.773 16.085,-4.565 24.832,-4.565 41.173,0 74.667,33.493 74.667,74.667 0,8.747 -1.792,17.024 -4.565,24.832 l 46.613,46.613 c 2.027,2.027 4.736,3.115 7.552,3.115 0.789,0 1.579,-0.085 2.368,-0.277 3.563,-0.811 6.485,-3.392 7.701,-6.848 2.901,-8.235 4.373,-16.576 4.373,-24.789 V 202.669 C 384,161.493 350.507,128 309.333,128 Z"
   id="path1"
   style="fill:#999999" />&#10;			<path
   d="M 245.333,0 C 110.059,0 0,110.059 0,245.333 0,380.607 110.059,490.666 245.333,490.666 380.607,490.666 490.666,380.607 490.666,245.333 490.666,110.059 380.608,0 245.333,0 Z m 0,469.333 c -123.52,0 -224,-100.48 -224,-224 0,-57.92 22.293,-110.613 58.496,-150.421 l 52.267,52.267 c -15.808,14.08 -25.429,34.176 -25.429,55.488 V 288 c 0,41.173 33.493,74.667 74.667,74.667 h 128 c 10.773,0 21.291,-2.773 31.019,-7.232 l 55.403,55.403 c -39.809,36.202 -92.503,58.495 -150.423,58.495 z m -74.666,-224 c 0,-16.725 5.931,-31.851 15.296,-44.288 l 103.68,103.68 C 277.205,314.091 262.059,320 245.333,320 204.16,320 170.667,286.507 170.667,245.333 Z M 410.837,395.755 94.933,79.851 c 39.808,-36.203 92.501,-58.496 150.421,-58.496 123.52,0 224,100.48 224,224 -0.021,57.898 -22.314,110.592 -58.517,150.4 z"
   id="path2"
   style="fill:#999999" />&#10;		</g>&#10;	</g>&#10;</g><rect
   style="fill:none;fill-opacity:0.935412;stroke:#ffe6b8;stroke-width:0.000231809;stroke-opacity:1"
   id="rect4"
   width="532.26263"
   height="529.8396"
   x="0.00011444092"
   y="0.00011539459" /></svg>
